<svg width="152" height="142" viewBox="0 0 152 142" fill="none" xmlns="http://www.w3.org/2000/svg">
<g clip-path="url(#clip0_3010_28466)">
<path d="M133.69 54.5546C128.995 54.5546 124.863 56.5154 121.827 59.5831C110.652 51.7715 95.5953 46.743 78.911 46.2054L87.5818 6.73634L115.191 12.9983C115.191 19.8294 120.7 25.3956 127.461 25.3956C134.348 25.3956 139.888 19.6713 139.888 12.8401C139.888 6.00894 134.379 0.284668 127.461 0.284668C122.641 0.284668 118.477 3.22587 116.411 7.24235L85.9228 0.411171C84.389 3.54052e-05 82.8864 1.10694 82.4795 2.65661L72.9635 46.1737C56.4045 46.8695 41.5045 51.898 30.2982 59.7096C27.2619 56.5154 22.9734 54.5546 18.278 54.5546C0.87383 54.5546 -4.82323 78.1475 11.1098 86.212C10.5463 88.7105 10.2959 91.3671 10.2959 94.0236C10.2959 120.526 39.8455 142 76.1251 142C112.561 142 142.111 120.526 142.111 94.0236C142.111 91.3671 141.829 88.584 141.14 86.0855C156.76 77.9893 151.001 54.5546 133.69 54.5546ZM36.3709 87.8882C36.3709 80.9305 41.8801 75.3328 48.798 75.3328C55.5593 75.3328 61.0686 80.8989 61.0686 87.8882C61.0686 94.7194 55.5593 100.286 48.798 100.286C41.9114 100.317 36.3709 94.7194 36.3709 87.8882ZM103.452 117.458C92.0581 128.97 59.9104 128.97 48.5163 117.458C47.2642 116.351 47.2642 114.391 48.5163 113.126C49.6119 112.019 51.5526 112.019 52.6482 113.126C61.3503 122.139 90.2112 122.297 99.2889 113.126C100.385 112.019 102.325 112.019 103.421 113.126C104.704 114.391 104.704 116.351 103.452 117.458ZM103.202 100.317C96.4404 100.317 90.9312 94.751 90.9312 87.9198C90.9312 80.9622 96.4404 75.3644 103.202 75.3644C110.088 75.3644 115.629 80.9305 115.629 87.9198C115.598 94.7194 110.088 100.317 103.202 100.317Z" fill="#737373"/>
</g>
<defs>
<clipPath id="clip0_3010_28466">
<rect width="149" height="142" fill="white" transform="translate(1.5)"/>
</clipPath>
</defs>
</svg>
