<svg width="152" height="92" viewBox="0 0 152 92" fill="none" xmlns="http://www.w3.org/2000/svg">
<g clip-path="url(#clip0_3010_28463)">
<g clip-path="url(#clip1_3010_28463)">
<path d="M42.7331 33.3702C42.5615 38.7686 45.2592 41.1592 45.326 42.6774C45.2942 42.9864 45.1889 43.2833 45.0189 43.5433C44.8489 43.8033 44.6192 44.0188 44.3489 44.1718L41.2984 46.3074C40.9036 46.5841 40.4383 46.7428 39.9567 46.765C39.8542 46.7602 38.0048 47.2011 35.0759 40.661C33.289 42.8918 31.0153 44.6841 28.4291 45.9007C25.8428 47.1174 23.0125 47.7261 20.1548 47.6802C16.275 47.8923 5.76044 45.4779 6.30142 34.283C5.9225 25.1593 14.4185 19.4915 23.2053 19.9706C24.8974 19.9753 28.353 20.0588 34.4039 21.465V17.7421C35.0449 11.4355 30.9006 6.54238 23.7248 7.27647C23.1529 7.27886 19.1015 7.1573 12.8003 9.68611C11.0463 10.4917 10.8223 10.3582 10.2384 10.3582C8.4725 10.3582 9.19937 5.23865 9.53778 4.59036C10.7794 3.06497 18.0839 0.216785 25.2524 0.257303C30.0456 -0.166643 34.8131 1.3128 38.5244 4.37585C40.033 6.06351 41.1839 8.03946 41.9077 10.1844C42.6315 12.3293 42.9131 14.5987 42.7354 16.8554L42.7331 33.3702ZM22.1376 41.09C29.8663 40.978 33.1384 36.3304 33.8843 33.8278C34.4706 31.4324 34.3729 29.9166 34.3729 27.2972C32.0683 26.7442 28.751 26.1412 24.945 26.1365C21.3345 25.8648 14.7403 27.4783 14.9976 33.8254C14.7021 37.8271 17.6477 41.3093 22.1376 41.09ZM62.8709 46.5838C60.9977 46.7554 60.1255 45.4255 59.849 44.1122L47.9808 4.86922C47.7496 4.20663 47.5971 3.52259 47.5232 2.82424C47.4795 2.53634 47.5518 2.24282 47.7243 2.00819C47.8967 1.77356 48.1553 1.61702 48.4431 1.57295C48.5003 1.56342 47.9355 1.57295 53.7457 1.57295C55.8381 1.36321 56.5197 3.01015 56.7366 4.04456L65.2493 37.6103L73.1519 4.04456C73.2782 3.2771 73.8526 1.40611 76.2024 1.60394H80.2919C80.8091 1.56103 82.9396 1.48476 83.3138 4.07554L91.2784 38.0703L100.065 4.07554C100.18 3.55596 100.713 1.36559 103.087 1.60394H107.787C107.989 1.57295 109.252 1.41088 109.038 3.64891C108.935 4.08984 109.85 1.10818 96.4666 44.1432C96.1925 45.4565 95.3179 46.7864 93.4447 46.6148H88.9905C86.3833 46.8889 86.0092 44.3124 85.9687 44.0526L78.066 11.3688L70.254 44.0193C70.2159 44.2791 69.8417 46.8555 67.2321 46.5814H62.8709V46.5838ZM128.046 47.9257C126.645 47.9281 119.962 47.8542 114.376 44.9965C113.82 44.7608 113.346 44.3653 113.014 43.8599C112.683 43.3545 112.509 42.7621 112.515 42.1578V39.5956C112.515 37.5817 113.992 37.9511 114.619 38.1918C117.012 39.1595 118.547 39.8936 121.485 40.4799C130.219 42.2746 134.061 39.9317 135.003 39.4121C138.136 37.5507 138.384 33.2915 136.254 31.0821C133.756 28.987 132.565 28.9084 123.592 26.0769C122.486 25.7694 113.177 22.8331 113.156 13.5973C113.011 6.86653 119.126 0.20725 129.724 0.262069C132.743 0.259685 140.789 1.24642 142.967 3.98497C143.289 4.48311 143.449 5.06943 143.425 5.6629V8.07254C143.425 9.13077 143.039 9.65989 142.264 9.65989C140.427 9.45492 137.166 6.99761 130.548 7.09772C128.906 7.01191 121.042 7.31461 121.395 13.0491C121.292 17.5681 127.736 19.2627 128.473 19.4581C137.162 22.0727 140.067 22.5065 143.515 26.5083C147.6 31.8114 145.398 38.0202 144.552 39.722C140.005 48.6574 128.246 47.9305 128.046 47.9257ZM137.626 72.9182C120.937 85.2453 96.7096 91.8068 76.0237 91.8068C48.112 91.9909 21.141 81.7267 0.412592 63.0318C-1.14362 61.628 0.229087 59.7046 2.12133 60.7747C25.1153 73.9292 51.1493 80.841 77.6395 80.824C97.4216 80.7179 116.988 76.7045 135.215 69.0142C138.022 67.8225 140.403 70.8733 137.626 72.9182ZM144.583 64.9838C142.448 62.2381 130.455 63.7016 125.086 64.3427C123.468 64.5262 123.194 63.1224 124.66 62.0856C134.209 55.3715 149.893 57.2949 151.694 59.552C153.494 61.8091 151.206 77.5254 142.266 85.0332C140.894 86.1939 139.581 85.5814 140.191 84.056C142.202 78.9912 146.718 67.7319 144.583 64.9838Z" fill="#737373"/>
</g>
</g>
<defs>
<clipPath id="clip0_3010_28463">
<rect width="151" height="92" fill="white" transform="translate(0.5)"/>
</clipPath>
<clipPath id="clip1_3010_28463">
<rect width="153" height="92" fill="white" transform="translate(-0.5)"/>
</clipPath>
</defs>
</svg>
