<svg width="154" height="50" viewBox="0 0 154 50" fill="none" xmlns="http://www.w3.org/2000/svg">
<g clip-path="url(#clip0_3010_28451)">
<path d="M36.142 46.9481L45.0587 47.1359C41.9856 46.0561 39.0056 44.7416 36.142 43.1923V46.9481ZM49.5752 45.704V46.9481L45.0587 47.1359C53.5563 50.0702 61.3323 50.4693 67.106 48.8261C62.473 48.873 56.4432 48.2157 49.5752 45.704ZM144.772 18.6618C148.474 18.6618 151.501 15.6336 151.501 11.8777C151.501 8.12185 148.497 6.12654 144.772 6.12654C141.071 6.12654 138.044 8.14532 138.044 11.8777C138.044 15.6101 141.047 18.6618 144.772 18.6618ZM138.021 46.9481H151.501V21.0092H138.021V46.9481ZM120.862 46.9481H134.342V1.10306L120.862 7.51151V46.9481ZM113.645 18.92C109.408 14.6477 101.911 14.9059 101.911 14.9059C101.911 14.9059 94.3916 14.6477 90.1777 18.92C85.9405 23.1923 86.2665 26.8777 86.2665 31.2674C86.2665 35.6571 85.9405 39.319 90.1777 43.5913C94.4149 47.8636 101.911 47.6054 101.911 47.6054C101.911 47.6054 109.431 47.8636 113.645 43.5913C117.882 39.319 117.556 35.6571 117.556 31.2674C117.533 26.8542 117.859 23.1688 113.645 18.92ZM104.379 35.7979C104.379 36.643 103.96 38.7322 101.888 38.7322C99.8162 38.7322 99.3971 36.643 99.3971 35.7979V26.3143C99.3971 24.2721 101.097 23.7556 101.888 23.7556C102.68 23.7556 104.379 24.2486 104.379 26.3143V35.7979ZM79.6546 18.92C75.4174 14.6477 67.9209 14.9059 67.9209 14.9059C67.9209 14.9059 60.4243 14.6477 56.1871 18.92C55.7448 19.366 55.3257 19.8355 54.9532 20.3284C46.0598 13.3801 38.0743 9.41292 31.1831 5.98569V1.12654L25.9448 3.6148C13.2798 -1.573 5.22446 -0.657501 3.29212 3.63827C3.29212 3.63827 -2.50491 11.3378 17.6799 29.6477V46.9481H31.1598V40.2345C29.6465 39.2486 28.1332 38.1923 26.6432 37.042C23.1976 34.4129 20.2641 31.9716 17.7032 29.6711V22.3941C20.7531 25.8449 24.804 29.765 30.1354 34.2017L31.1831 35.0467V28.0514C31.1831 26.4317 31.5788 23.7791 33.6974 23.7791C35.816 23.7791 36.1652 25.3988 36.1652 27.3002V38.7322C40.3559 41.596 44.8491 43.92 49.5985 45.6805V23.6383C49.5985 19.2486 46.4788 14.8589 40.1463 14.8589C36.4679 14.8355 33.0456 16.7838 31.1831 19.9998V7.2533C40.9379 12.1594 50.716 18.1688 54.441 20.9387C52.0663 24.366 52.2759 27.535 52.2759 31.197C52.2759 35.5866 51.9499 39.2486 56.1871 43.5209C60.4243 47.7932 67.9209 47.535 67.9209 47.535C67.9209 47.535 75.4407 47.7932 79.6546 43.5209C83.8918 39.2486 83.5426 35.5866 83.5426 31.197C83.5426 26.8542 83.8918 23.1688 79.6546 18.92ZM17.6799 7.51151V22.3707C6.34196 9.57724 8.62353 4.53029 9.48493 3.80259C12.6279 1.12654 18.2154 1.92466 24.4781 4.29555L17.6799 7.51151ZM70.412 35.7979C70.412 36.643 69.9929 38.7322 67.9209 38.7322C65.8488 38.7322 65.4298 36.643 65.4298 35.7979V26.3143C65.4298 24.2721 67.1293 23.7556 67.9209 23.7556C68.7124 23.7556 70.412 24.2486 70.412 26.3143V35.7979Z" fill="#737373"/>
</g>
<defs>
<clipPath id="clip0_3010_28451">
<rect width="149" height="50" fill="white" transform="translate(2.5)"/>
</clipPath>
</defs>
</svg>
