<svg width="146" height="99" viewBox="0 0 146 99" fill="none" xmlns="http://www.w3.org/2000/svg">
<g clip-path="url(#clip0_3010_28454)">
<path d="M3.5 1.67018H24.6215V58.7456C24.6215 67.7978 28.6938 73.1854 32.0059 75.4279C28.558 78.4635 18.1059 81.1437 10.2328 74.6622C5.61758 70.8334 3.5 64.4613 3.5 58.5268V1.67018ZM135.414 49.1191V43.1025H141.876V22.0992H134.79C132.048 9.43703 120.89 0.0292969 107.56 0.0292969C92.1939 0.0292969 79.6785 12.6094 79.6785 28.1158V77.1235C84.0223 77.7525 89.2891 77.0415 93.7143 73.2948C98.3566 69.466 100.447 63.1213 100.447 57.1594V55.3271H110.981V34.3238H100.447V27.9517C100.447 18.4892 114.619 18.4892 114.619 27.9517V49.037C114.619 64.516 127.107 77.1235 142.5 77.1235V56.2022C138.563 56.2022 135.414 53.0025 135.414 49.1191ZM55.5164 22.0445V52.9478C55.5164 57.1594 49.0551 57.1594 49.0551 52.9478V22.0445H28.2051V58.3354C28.2051 64.8442 30.377 73.1033 40.4219 75.8108C50.4668 78.4909 56.2223 72.9119 56.2223 72.9119C55.6521 76.5765 52.2857 79.284 46.7475 79.8309C42.5395 80.2685 37.1912 78.8464 34.5307 77.6978V96.9235C41.3449 98.9746 48.5121 99.6036 55.5979 98.2089C68.3848 95.7202 76.4479 84.9724 76.4479 70.642V21.9078H55.5164V22.0445Z" fill="#737373"/>
</g>
<defs>
<clipPath id="clip0_3010_28454">
<rect width="139" height="99" fill="white" transform="translate(3.5)"/>
</clipPath>
</defs>
</svg>
