<svg width="16" height="16" viewBox="0 0 16 16" fill="none" xmlns="http://www.w3.org/2000/svg">
<g clip-path="url(#clip0_3010_28552)">
<path d="M-0.499512 4C-0.499512 3.46957 -0.288798 2.96086 0.0862747 2.58579C0.461347 2.21071 0.970055 2 1.50049 2H13.5005C14.0309 2 14.5396 2.21071 14.9147 2.58579C15.2898 2.96086 15.5005 3.46957 15.5005 4V12C15.5005 12.5304 15.2898 13.0391 14.9147 13.4142C14.5396 13.7893 14.0309 14 13.5005 14H1.50049C0.970055 14 0.461347 13.7893 0.0862747 13.4142C-0.288798 13.0391 -0.499512 12.5304 -0.499512 12V4ZM1.50049 3C1.23527 3 0.980918 3.10536 0.793381 3.29289C0.605845 3.48043 0.500488 3.73478 0.500488 4V4.217L7.50049 8.417L14.5005 4.217V4C14.5005 3.73478 14.3951 3.48043 14.2076 3.29289C14.0201 3.10536 13.7657 3 13.5005 3H1.50049ZM14.5005 5.383L9.74249 8.238L14.5005 11.114V5.384V5.383ZM14.4665 12.261L8.77149 8.82L7.50049 9.583L6.22849 8.82L0.534488 12.26C0.591686 12.4724 0.717337 12.6601 0.891976 12.7938C1.06662 12.9276 1.2805 13.0001 1.50049 13H13.5005C13.7203 13.0001 13.9341 12.9278 14.1088 12.7942C14.2834 12.6607 14.4091 12.4732 14.4665 12.261ZM0.500488 11.114L5.25849 8.238L0.500488 5.383V11.113V11.114Z" fill="white"/>
</g>
<defs>
<clipPath id="clip0_3010_28552">
<rect width="16" height="16" fill="white" transform="translate(0.000488281)"/>
</clipPath>
</defs>
</svg>
