<svg width="150" height="60" viewBox="0 0 150 60" fill="none" xmlns="http://www.w3.org/2000/svg">
<g clip-path="url(#clip0_3010_28460)">
<g clip-path="url(#clip1_3010_28460)">
<path d="M38.9156 4.70455L28.8348 6.79545L28.7883 39.1591C28.7883 45.1364 33.398 49 39.5209 49C42.92 49 45.4111 48.3864 46.7847 47.6591V39.9773C45.4576 40.5 38.9389 42.3636 38.9389 36.4091V22.0455H46.7847V13.4545H38.9389L38.9156 4.70455ZM59.6592 16.4318L59.0306 13.4545H50.0906V48.2727H60.4042V24.8409C62.8487 21.7045 66.9695 22.3182 68.2966 22.7273V13.4545C66.8997 12.9773 62.0805 12.0909 59.6592 16.4318ZM81.1478 0L70.7644 2.15909V10.3864L81.1478 8.22727V0ZM10.9548 23.7045C10.9548 22.1364 12.3052 21.5227 14.4703 21.5C17.6133 21.5 21.6177 22.4318 24.7606 24.0909V14.5909C21.3383 13.2727 17.9159 12.75 14.4936 12.75C6.11234 12.75 0.524841 17.0227 0.524841 24.1591C0.524841 35.3409 16.2397 33.5227 16.2397 38.3409C16.2397 40.2046 14.5867 40.8182 12.2819 40.8182C8.85953 40.8182 4.43609 39.4318 0.967185 37.5909V46.6818C4.80859 48.2955 8.69656 48.9773 12.2586 48.9773C20.8494 48.9773 26.7628 45.3864 26.7628 38.1136C26.7628 26.0909 10.9548 28.25 10.9548 23.7045ZM149.502 31.2727C149.502 20.9318 144.38 12.7727 134.555 12.7727C124.73 12.7727 118.747 20.9318 118.747 31.2045C118.747 43.3636 125.801 48.9773 135.859 48.9773C140.794 48.9773 144.496 47.8864 147.313 46.3636V38.7727C144.496 40.1591 141.26 41 137.162 41C133.135 41 129.596 39.6136 129.13 34.8864H149.362C149.408 34.3636 149.502 32.25 149.502 31.2727ZM129.037 27.4545C129.037 22.9091 131.901 21 134.485 21C137.023 21 139.723 22.9091 139.723 27.4545H129.037ZM102.753 12.7727C98.7019 12.7727 96.0944 14.6364 94.6509 15.9318L94.1155 13.4318H85.0125V59.9773L95.3494 57.8409L95.3726 46.4318C96.8626 47.5 99.0744 48.9773 102.683 48.9773C110.086 48.9773 116.838 43.7045 116.838 30.8864C116.861 19.1591 110.017 12.7727 102.753 12.7727ZM100.285 40.6136C97.8637 40.6136 96.4203 39.75 95.4192 38.7045L95.3494 23.7045C96.4203 22.5455 97.9103 21.7045 100.285 21.7045C104.057 21.7045 106.664 25.8409 106.664 31.1136C106.687 36.5455 104.126 40.6136 100.285 40.6136ZM70.7876 48.2727H81.1711V13.4545H70.7876V48.2727Z" fill="#737373"/>
</g>
</g>
<defs>
<clipPath id="clip0_3010_28460">
<rect width="149" height="60" fill="white" transform="translate(0.5)"/>
</clipPath>
<clipPath id="clip1_3010_28460">
<rect width="149" height="60" fill="white" transform="translate(0.5)"/>
</clipPath>
</defs>
</svg>
