<svg width="17" height="16" viewBox="0 0 17 16" fill="none" xmlns="http://www.w3.org/2000/svg">
<g clip-path="url(#clip0_3010_28570)">
<path d="M5.02649 14.0009C11.0645 14.0009 14.3675 8.99794 14.3675 4.66694C14.3675 4.52694 14.3675 4.38494 14.3615 4.24494C15.0045 3.77942 15.5595 3.20309 16.0005 2.54294C15.3998 2.80779 14.7632 2.98234 14.1115 3.06094C14.798 2.65057 15.3122 2.00491 15.5585 1.24394C14.9135 1.62606 14.2075 1.89431 13.4715 2.03694C12.9767 1.50996 12.3219 1.16085 11.6086 1.04369C10.8953 0.926535 10.1632 1.04786 9.52583 1.38887C8.88844 1.72989 8.3813 2.27157 8.08294 2.93C7.78458 3.58843 7.71167 4.32687 7.87549 5.03094C6.57023 4.96549 5.2933 4.62641 4.12753 4.03568C2.96176 3.44495 1.93317 2.61578 1.10849 1.60194C0.689828 2.32502 0.562062 3.18034 0.751134 3.9942C0.940207 4.80807 1.43194 5.51947 2.12649 5.98394C1.60603 5.96625 1.09701 5.8265 0.640488 5.57594V5.62094C0.641386 6.37842 0.903795 7.11236 1.38336 7.6987C1.86293 8.28504 2.53024 8.68781 3.27249 8.83894C2.99075 8.91655 2.69972 8.95524 2.40749 8.95394C2.20147 8.95456 1.99587 8.93547 1.79349 8.89694C2.00327 9.54899 2.41176 10.1191 2.96174 10.5274C3.51171 10.9357 4.17562 11.1618 4.86049 11.1739C3.69704 12.0877 2.25989 12.5833 0.780488 12.5809C0.519809 12.582 0.259311 12.567 0.000488281 12.5359C1.502 13.4932 3.24579 14.0015 5.02649 14.0009Z" fill="white"/>
</g>
<defs>
<clipPath id="clip0_3010_28570">
<rect width="16" height="16" fill="white" transform="translate(0.500488 0.000244141)"/>
</clipPath>
</defs>
</svg>
