<svg width="17" height="16" viewBox="0 0 17 16" fill="none" xmlns="http://www.w3.org/2000/svg">
<g clip-path="url(#clip0_3010_28564)">
<path d="M9.05149 1.99927H9.14049C9.96249 2.00227 14.1275 2.03227 15.2505 2.33427C15.59 2.42644 15.8993 2.60609 16.1476 2.85528C16.396 3.10446 16.5745 3.41445 16.6655 3.75427C16.7665 4.13427 16.8375 4.63727 16.8855 5.15627L16.8955 5.26027L16.9175 5.52027L16.9255 5.62427C16.9905 6.53827 16.9985 7.39427 16.9995 7.58127V7.65627C16.9985 7.85027 16.9895 8.76427 16.9175 9.71627L16.9095 9.82127L16.9005 9.92527C16.8505 10.4973 16.7765 11.0653 16.6655 11.4833C16.5748 11.8232 16.3963 12.1334 16.148 12.3826C15.8996 12.6318 15.5901 12.8114 15.2505 12.9033C14.0905 13.2153 9.68149 13.2373 9.07049 13.2383H8.92849C8.61949 13.2383 7.34149 13.2323 6.00149 13.1863L5.83149 13.1803L5.74449 13.1763L5.57349 13.1693L5.40249 13.1623C4.29249 13.1133 3.23549 13.0343 2.74849 12.9023C2.40898 12.8105 2.09955 12.6311 1.85121 12.382C1.60287 12.133 1.42434 11.823 1.33349 11.4833C1.22249 11.0663 1.14849 10.4973 1.09849 9.92527L1.09049 9.82027L1.08249 9.71627C1.03314 9.03867 1.00579 8.35964 1.00049 7.68027L1.00049 7.55727C1.00249 7.34227 1.01049 6.59927 1.06449 5.77927L1.07149 5.67627L1.07449 5.62427L1.08249 5.52027L1.10449 5.26027L1.11449 5.15627C1.16249 4.63727 1.23349 4.13327 1.33449 3.75427C1.42518 3.41432 1.60365 3.10418 1.852 2.85495C2.10035 2.60572 2.40986 2.42616 2.74949 2.33427C3.23649 2.20427 4.29349 2.12427 5.40349 2.07427L5.57349 2.06727L5.74549 2.06127L5.83149 2.05827L6.00249 2.05127C6.9542 2.02064 7.90629 2.00364 8.85849 2.00027H9.05149V1.99927ZM7.40049 5.20927V10.0273L11.5575 7.61927L7.40049 5.20927Z" fill="white"/>
</g>
<defs>
<clipPath id="clip0_3010_28564">
<rect width="16" height="16" fill="white" transform="translate(0.500488 0.000244141)"/>
</clipPath>
</defs>
</svg>
